<svg width="75" height="75" viewBox="0 0 75 75" fill="none" xmlns="http://www.w3.org/2000/svg">
<g clip-path="url(#clip0_2032_1872)">
<path d="M37.4966 74.9932C58.2054 74.9932 74.9932 58.2054 74.9932 37.4966C74.9932 16.7878 58.2054 0 37.4966 0C16.7878 0 0 16.7878 0 37.4966C0 58.2054 16.7878 74.9932 37.4966 74.9932Z" fill="#F4EEE7"/>
<path d="M23.1249 49.4255C23.0639 49.1677 22.9892 48.7877 22.9689 48.3195C22.9417 47.7359 22.901 46.7792 23.4303 45.9174C23.8103 45.3067 24.326 44.9946 24.8824 44.6621C26.7145 43.5696 28.4041 43.5832 28.3905 43.4C28.3769 43.21 26.7145 43.0607 24.862 43.2643C23.756 43.3864 22.46 43.5425 20.9739 44.2618C20.3429 44.5671 19.0604 45.2117 17.9951 46.562C17.2487 47.512 16.9094 48.4416 16.7466 49.032" fill="#2D442B"/>
<path d="M22.4803 58.2399C18.8162 56.0481 16.5837 52.9065 16.5837 50.138C16.5837 48.1634 17.8594 46.9285 19.7729 46.9285C21.4489 46.9285 22.7178 47.8038 23.1996 49.7037C24.1563 55.1796 30.209 57.9549 37.8562 57.9549C46.4602 57.9549 52.1126 54.0125 52.1126 47.6613C52.1126 41.3101 47.8106 38.4602 35.3863 36.2684C22.5618 34.0021 17.7033 30.1344 17.7033 22.4668C17.7033 13.7746 25.8256 7.64726 38.0191 7.64726C38.0191 7.64726 45.6528 7.05013 52.7572 11.2978C53.1915 11.5557 54.1414 12.1257 54.8675 13.2181C55.5867 14.297 55.7496 15.3827 55.7835 16.0477V19.9901C55.8242 20.0986 55.9871 20.5261 55.7699 20.7297C55.5324 20.9536 54.9828 20.7636 54.5553 20.6211C53.775 20.3497 53.2729 19.9426 53.1372 19.8408C52.4858 19.3454 52.0583 18.7822 51.7801 18.3073C51.2983 17.5269 50.5587 16.5159 49.4526 15.4913C49.2287 15.2877 47.9463 14.0528 46.0599 13.1299C43.6714 11.9628 40.2447 11.3793 37.137 11.3793C29.2522 11.3793 23.8306 15.3963 23.8306 21.2386C23.8306 27.0809 27.6577 29.6322 39.4441 31.7561C53.0693 34.2396 58.4027 38.1073 58.4027 46.5077C58.4027 55.926 50.3551 61.6937 37.5305 61.6937C31.4779 61.6937 26.4566 60.6012 22.4735 58.2602L22.4803 58.2399Z" fill="#2D442B"/>
<path d="M50.5383 16.6041C51.088 17.2691 51.4951 17.8594 51.7869 18.3005C52.5672 19.4879 53.0557 20.2615 53.1847 21.3675C53.2118 21.5982 53.2593 22.0054 53.1779 22.521C52.8793 24.4006 51.2644 25.4388 51.3933 25.5609C51.5087 25.6763 52.9132 24.9367 54.1821 23.5728C55.6342 22.0121 56.1364 20.4786 56.2449 20.1122C56.4281 19.5083 56.7878 18.2869 56.5299 16.7127C56.4553 16.2513 56.2246 15.152 55.4578 13.9578C54.7385 12.8449 54.2364 12.3496 53.5782 11.8475C52.92 11.3454 51.9565 10.8432 51.5222 10.6125" fill="#2D442B"/>
</g>
<defs>
<clipPath id="clip0_2032_1872">
<rect width="75" height="75" fill="white"/>
</clipPath>
</defs>
</svg>
