<?xml version="1.0" encoding="UTF-8"?>
<svg id="Layer_2" data-name="Layer 2" xmlns="http://www.w3.org/2000/svg" viewBox="0 0 114.33 40.22">
  <defs>
    <style>
      .cls-1 {
        fill: #f4eee7;
      }
    </style>
  </defs>
  <g id="Layer_8" data-name="Layer 8">
    <g>
      <path class="cls-1" d="M34.52,28.78c-2.5-4.69-4.47-10.81-5.98-17.33-.22-1.12-.76-1.7-2.05-2.05-.58-.27-.85-.63-.85-.98,0-.54.45-.8,1.38-.8h6.12c.76,0,1.16.31,1.16.76,0,.36-.18.63-.76.89-1.3.45-1.65.89-1.52,1.79.85,4.69,2.81,11.21,5.76,16.75,2.19-4.69,4.47-10.94,5.31-14.74.27-1.03.36-1.65.36-2.1,0-.89-.36-1.25-1.61-1.65-.76-.31-.94-.58-.94-.98,0-.45.4-.71.94-.71h6.56c.58,0,.94.31.94.71s-.13.58-.85.89c-1.21.4-1.52.8-1.47,1.83.27,3.93,2.55,10.85,5.63,16.7,2.37-4.73,4.6-11.7,5.4-15.59.18-.76.27-1.3.27-1.7,0-.76-.45-1.03-1.47-1.3-.67-.22-.85-.45-.85-.85,0-.45.31-.71.98-.71h5.94c.71,0,1.03.27,1.03.67,0,.36-.18.54-.89.94-1.21.36-1.52.67-1.83,1.88-1.88,7.19-3.57,12.37-6.25,17.77-.89,1.7-1.38,2.01-2.19,2.01h-.63c-.98,0-1.43-.27-2.19-1.74-2.14-4.06-3.93-8.62-5.09-13.17-1.21,4.51-3.04,9.16-5,13.31-.54,1.12-1.25,1.61-2.1,1.61h-.54c-1.07,0-1.79-.31-2.72-2.1Z"/>
      <path class="cls-1" d="M86.16,28.17c-1.34-.27-1.61-.67-1.61-1.96v-11.88c0-4.96-2.95-7.5-8.4-7.5-2.99,0-5.98.94-7.86,2.41-1.16.89-1.7,1.74-1.7,2.68s.63,1.61,1.65,1.61c.85,0,1.47-.49,2.05-1.61.89-1.7,3.04-2.86,5.31-2.86,1.78,0,3.18.48,4.14,1.42,1.5,1.48,1.56,3.63,1.58,4.58.02.79-.09,1.06-.25,4.2-.02.47-.04.85-.05,1.11,0,1.81-.28,4.48-1.78,6.17-1.75,1.99-4.55,1.95-4.94,1.95-1.88,0-3.35-.64-4.22-1.78-.86-1.12-.87-2.39-.87-2.77.02-2.06,1.41-3.42,1.93-3.92,0,0,1.96-1.92,4.79-1.94.82,0,1.55.16,2.19.53.35.21.84.5.99,1.07.02.07.16.62-.12,1.08-.22.35-.56.45-.54.5.03.06.67-.01,1.11-.45.6-.58.5-1.48.49-1.55-.17-1.39-1.88-2.11-2.26-2.27-.75-.32-1.39-.35-2.04-.38-1.2-.06-2.16.16-2.86.32-.38.09-.89.23-1.49.45-.76.28-1.82.68-2.84,1.48-2.7,2.14-2.85,5.41-2.84,5.43,0,0,0,.02,0,.04h0c0,3.84,3.17,6.57,7.73,6.57,3.84,0,6.92-1.88,7.99-4.6v1.7c0,1.96.63,2.77,2.14,2.77,2.05,0,3.66-.76,3.66-1.7,0-.49-.18-.67-1.12-.89Z"/>
      <path class="cls-1" d="M91.38,37.61c-.07-1.15.85-2.16,2-2.17.72,0,1.3.35,1.71,1.03.45.76.89,1.03,1.52,1.03,1.83,0,3.8-2.72,6.21-7.82-.54.4-1.25.67-1.92.67-2.01,0-3.35-.98-4.51-3.48-2.01-3.97-3.62-9.69-4.6-15.18-.22-1.21-.67-1.74-2.19-2.23-.63-.27-.85-.63-.85-.98,0-.58.45-.85,1.38-.85h6.12c.8,0,1.21.27,1.21.76,0,.4-.09.49-.89.98-.98.31-1.43.76-1.34,1.7.49,4.33,2.19,10.27,4.24,14.56.85,1.79,1.56,2.41,2.5,2.41s1.52-.58,2.23-2.19c1.88-4.24,4.11-11.83,4.42-15.09.09-.94-.18-1.25-1.43-1.47-.63-.22-.89-.54-.89-.94,0-.45.36-.71.94-.71h6.07c.71,0,1.03.22,1.03.71,0,.36-.18.58-.8.94-1.25.54-1.61.8-1.83,1.79-1.3,6.79-4.64,16.57-7.28,21.3-3.22,5.85-5.4,7.86-8.84,7.86-2.51,0-4.09-1.05-4.19-2.61Z"/>
      <g>
        <path class="cls-1" d="M3.66,25.57c-.03-.16-.08-.39-.09-.68-.01-.36-.04-.94.26-1.47.21-.37.5-.56.81-.77,1.03-.67,1.97-.66,1.97-.77,0-.11-.94-.21-1.98-.08-.62.07-1.35.17-2.18.61-.35.19-1.07.58-1.67,1.41-.42.58-.61,1.15-.7,1.51"/>
        <path class="cls-1" d="M3.3,30.97c-2.05-1.34-3.3-3.26-3.3-4.96,0-1.21.71-1.96,1.79-1.96.94,0,1.65.54,1.92,1.7.54,3.35,3.93,5.05,8.22,5.05,4.82,0,7.99-2.41,7.99-6.3s-2.41-5.63-9.38-6.97C3.35,16.14.63,13.77.63,9.08.63,3.77,5.18.02,12.01.02c0,0,4.28-.37,8.26,2.23.24.16.78.51,1.18,1.17.4.66.49,1.32.51,1.73v2.41c.02.07.11.33,0,.45-.13.14-.44.02-.68-.07-.44-.16-.72-.41-.8-.48-.36-.31-.6-.65-.76-.94-.27-.48-.69-1.1-1.3-1.72-.12-.13-.84-.88-1.9-1.44-1.34-.71-3.26-1.07-5-1.07-4.42,0-7.46,2.46-7.46,6.03s2.14,5.14,8.75,6.43c7.64,1.52,10.63,3.89,10.63,9.02,0,5.76-4.51,9.29-11.7,9.29-3.39,0-6.21-.67-8.44-2.1Z"/>
        <path class="cls-1" d="M19.03,5.5c.31.41.54.77.7,1.04.44.73.71,1.2.79,1.88.02.14.04.39,0,.71-.17,1.15-1.07,1.78-1,1.86.06.07.85-.38,1.56-1.22.81-.95,1.09-1.89,1.16-2.12.1-.37.31-1.11.16-2.08-.04-.28-.17-.95-.6-1.69-.4-.68-.68-.98-1.05-1.29-.37-.31-.91-.62-1.15-.76"/>
      </g>
    </g>
  </g>
</svg>